<svg id="Layer_1" data-name="Layer 1" xmlns="http://www.w3.org/2000/svg" viewBox="0 0 24 24"><title>config_map</title><path d="M10.82,13.34l-1.07-.83a3.89,3.89,0,0,0,0-.49,2.63,2.63,0,0,0,0-.49l1.06-.83a.26.26,0,0,0,.06-.32l-1-1.73a.25.25,0,0,0-.31-.11L8.32,9a3.42,3.42,0,0,0-.85-.49L7.28,7.23A.24.24,0,0,0,7,7H5a.26.26,0,0,0-.25.21L4.6,8.55A4,4,0,0,0,3.75,9l-1.24-.5a.26.26,0,0,0-.31.11l-1,1.73a.25.25,0,0,0,.06.32l1.06.83a4,4,0,0,0,0,1l-1.06.83a.26.26,0,0,0-.06.32l1,1.73a.25.25,0,0,0,.31.11L3.75,15a3.42,3.42,0,0,0,.85.49l.19,1.32A.25.25,0,0,0,5,17H7a.26.26,0,0,0,.25-.21l.19-1.32A3.7,3.7,0,0,0,8.32,15l1.25.5a.26.26,0,0,0,.31-.11l1-1.73A.26.26,0,0,0,10.82,13.34ZM6,13.52A1.5,1.5,0,1,1,7.54,12,1.5,1.5,0,0,1,6,13.52ZM20,0H16a1,1,0,0,0-1,1V3H5V6H7V5h8V9a1,1,0,0,0,1,1h6a1,1,0,0,0,1-1V3Zm-.5,3.5V.77l2.75,2.75ZM20,14H16a1,1,0,0,0-1,1v4H7V18H5v3H15v2a1,1,0,0,0,1,1h6a1,1,0,0,0,1-1V17Zm-.5,3.5V14.76l2.75,2.75Z"/></svg>