<svg id="Layer_1" data-name="Layer 1" xmlns="http://www.w3.org/2000/svg" viewBox="0 0 24 24"><defs><style>.cls-1{fill:#231f20;}</style></defs><title>container</title><path class="cls-1" d="M20,10H18.51l-5.3-3.43A2,2,0,0,0,14,5a2,2,0,0,0-1-1.7V2H12V4h0a1,1,0,1,1-1,1H10a2,2,0,0,0,.79,1.58L5.5,10H4a2,2,0,0,0-2,2v8a2,2,0,0,0,2,2H20a2,2,0,0,0,2-2V12A2,2,0,0,0,20,10ZM12,7h0l4.65,3H7.34ZM7,18a1,1,0,0,1-2,0V14a1,1,0,0,1,2,0Zm4,0a1,1,0,0,1-2,0V14a1,1,0,0,1,2,0Zm4,0a1,1,0,0,1-2,0V14a1,1,0,0,1,2,0Zm4,0a1,1,0,0,1-2,0V14a1,1,0,0,1,2,0Z"/></svg>