<svg id="Layer_1" data-name="Layer 1" xmlns="http://www.w3.org/2000/svg" viewBox="0 0 24 24"><defs><style>.cls-1{fill:#231f20;}</style></defs><title>molecules</title><path class="cls-1" d="M20.38,9.49a2.48,2.48,0,0,0-.54.06L18,6.42a2.45,2.45,0,0,0,.66-1.68A2.49,2.49,0,0,0,13.83,4H10.18a2.49,2.49,0,0,0-4.87.76A2.43,2.43,0,0,0,6,6.41L4.16,9.55a2.5,2.5,0,1,0,0,4.88L6,17.58A2.49,2.49,0,1,0,10.19,20h3.64a2.48,2.48,0,0,0,2.37,1.76A2.49,2.49,0,0,0,18,17.57l1.82-3.14a2.33,2.33,0,0,0,.53.06,2.5,2.5,0,0,0,0-5Zm-3.65,7.33a2.33,2.33,0,0,0-.53-.06,2.5,2.5,0,0,0-2.37,1.74H10.18a2.5,2.5,0,0,0-2.37-1.74,2.33,2.33,0,0,0-.53.06L5.46,13.67a2.47,2.47,0,0,0,0-3.36L7.27,7.18a2.35,2.35,0,0,0,.54.06,2.5,2.5,0,0,0,2.38-1.76h3.64a2.47,2.47,0,0,0,2.91,1.7l1.8,3.13a2.47,2.47,0,0,0,0,3.36Z"/></svg>