<svg id="Layer_1" data-name="Layer 1" xmlns="http://www.w3.org/2000/svg" viewBox="0 0 24 24"><title>node-b</title><circle cx="12" cy="3" r="1"/><circle cx="20" cy="8" r="1"/><circle cx="20" cy="16" r="1"/><circle cx="4" cy="8" r="1"/><circle cx="4" cy="16" r="1"/><path d="M20,14V10a2,2,0,0,1-2-2,2,2,0,0,1,.52-1.33L13.74,4a2,2,0,0,1-3.48,0L5.48,6.67A2,2,0,0,1,6,8a2,2,0,0,1-2,2v4a2,2,0,0,1,2,2,2,2,0,0,1-.52,1.33L10.26,20a2.05,2.05,0,0,1,1.24-.95V13.93a2,2,0,1,1,1,0v5.14a2.05,2.05,0,0,1,1.24.95l4.78-2.69A2,2,0,0,1,18,16,2,2,0,0,1,20,14Z"/><circle cx="12" cy="21" r="1"/><circle cx="12" cy="12" r="1"/></svg>