<svg id="Layer_1" data-name="Layer 1" xmlns="http://www.w3.org/2000/svg" viewBox="0 0 24 24"><defs><style>.cls-1{fill:#231f20;}</style></defs><title>organisms</title><path class="cls-1" d="M21.1,10.5a1,1,0,0,0-.25,0l-1.2-2.08A1.46,1.46,0,0,0,20,7.5,1.5,1.5,0,0,0,17.09,7H14.7a1.51,1.51,0,0,0-1.41-1l-.24,0L11.86,4A1.5,1.5,0,1,0,9.31,2.49H6.91a1.49,1.49,0,0,0-1.41-1A1.5,1.5,0,0,0,4,3a1.52,1.52,0,0,0,.38,1L3.2,6,2.92,6a1.5,1.5,0,0,0,0,3A1.27,1.27,0,0,0,3.2,9l1.18,2a1.45,1.45,0,0,0,0,2L3.2,15a1.27,1.27,0,0,0-.28,0,1.5,1.5,0,0,0,0,3l.28,0,1.18,2A1.52,1.52,0,0,0,4,21a1.5,1.5,0,0,0,1.5,1.5,1.49,1.49,0,0,0,1.41-1h2.4A1.5,1.5,0,1,0,11.86,20L13.05,18l.27,0a1.5,1.5,0,0,0,1.41-1H17.1a1.48,1.48,0,0,0,1.4,1A1.5,1.5,0,0,0,20,16.5a1.46,1.46,0,0,0-.35-.95l1.2-2.08a1,1,0,0,0,.25,0,1.5,1.5,0,0,0,0-3ZM18.5,15a1.48,1.48,0,0,0-1.4,1H14.73a1.5,1.5,0,0,0-1.41-1l-.27,0L11.86,13a1.49,1.49,0,0,0,0-1.94L13.05,9l.24,0A1.51,1.51,0,0,0,14.7,8h2.39A1.51,1.51,0,0,0,18.5,9a1.36,1.36,0,0,0,.29,0L20,11a1.48,1.48,0,0,0,0,2l-1.19,2A1.36,1.36,0,0,0,18.5,15Zm-7.78,4.51a1.51,1.51,0,0,0-1.41,1H6.91a1.49,1.49,0,0,0-1.41-1l-.25,0L4.06,17.47a1.5,1.5,0,0,0,.36-1,1.48,1.48,0,0,0-.36-1l1.19-2.07a1.07,1.07,0,0,0,.25,0,1.49,1.49,0,0,0,1.41-1h2.4a1.51,1.51,0,0,0,1.41,1,1.27,1.27,0,0,0,.28,0l1.19,2.06a1.48,1.48,0,0,0-.37,1,1.46,1.46,0,0,0,.37,1L11,19.53Zm-6.66-13L5.25,4.47l.25,0a1.49,1.49,0,0,0,1.41-1h2.4a1.51,1.51,0,0,0,1.41,1l.28,0,1.17,2a1.48,1.48,0,0,0-.38,1,1.52,1.52,0,0,0,.38,1l-1.17,2a1.27,1.27,0,0,0-.28,0,1.51,1.51,0,0,0-1.41,1H6.91a1.49,1.49,0,0,0-1.41-1,1.07,1.07,0,0,0-.25,0L4.06,8.46a1.48,1.48,0,0,0,.36-1A1.5,1.5,0,0,0,4.06,6.53Z"/></svg>