<svg id="Layer_1" data-name="Layer 1" xmlns="http://www.w3.org/2000/svg" viewBox="0 0 24 24"><title>secure_data</title><path d="M14.27,15a4.25,4.25,0,0,1,.78-2H11V11h8a4.91,4.91,0,0,1,2,.44V3a2,2,0,0,0-2-2H3A2,2,0,0,0,1,3V17a2,2,0,0,0,2,2H13v-.8a3.09,3.09,0,0,1,.27-1.2H7V15ZM19,9H11V7h8ZM7,3H19V5H7ZM5,17H3V15H5ZM5,5H3V3H5ZM7,7H9V9H7Zm0,6V11H9v2Zm14.8,4v-1.5a2.82,2.82,0,0,0-5.6,0V17a1.29,1.29,0,0,0-1.2,1.2v3.5a1.31,1.31,0,0,0,1.2,1.3h5.5a1.31,1.31,0,0,0,1.3-1.2v-3.5A1.31,1.31,0,0,0,21.81,17Zm-1.3,0h-3v-1.5a1.37,1.37,0,0,1,1.5-1.3,1.37,1.37,0,0,1,1.5,1.3Z"/></svg>