<svg id="Layer_1" data-name="Layer 1" xmlns="http://www.w3.org/2000/svg" viewBox="0 0 24 24"><title>volume</title><path d="M17,2H7A2.00588,2.00588,0,0,0,5,4V20a2.00591,2.00591,0,0,0,2,2H17a2.00588,2.00588,0,0,0,2-2V4a2.00585,2.00585,0,0,0-2-2ZM8,20.02a1.00291,1.00291,0,1,1,.70625-.29373A.997.997,0,0,1,8,20.02ZM12,14a5,5,0,1,1,5-5,4.75559,4.75559,0,0,1-.18011,1.29388,5.21464,5.21464,0,0,1-.49177,1.16626l-.206-.15805-.20605-.158-.19428-.14782-.19427-.14783a4.20612,4.20612,0,0,0,.34567-.88087A3.77536,3.77536,0,0,0,16,9a4,4,0,1,0-4,4,3.58049,3.58049,0,0,0,.46022-.03053c.1507-.0195.29881-.04747.44475-.08135l.09024.21659.09024.21658.10113.24512.10114.24511a6.00858,6.00858,0,0,1-.63077.13572A4.26824,4.26824,0,0,1,12,14Zm1-4.98a1.00294,1.00294,0,1,1-.29375-.70625A.99694.99694,0,0,1,13,9.02Zm4.44,5.1-.47.365-.47.365-.47.36-.47.36a.30938.30938,0,0,1-.30623.02748A.46254.46254,0,0,1,15,15.34l-.495-1.2-.495-1.2-.375-.9-.375-.9a.31708.31708,0,0,1,.5-.38l.775.59.775.59,1.03.79,1.03.79a.46867.46867,0,0,1,.18125.31128A.30052.30052,0,0,1,17.44,14.12Z"/></svg>